<?xml version="1.0" encoding="utf-8"?>
<!-- Generator: Adobe Illustrator 15.0.0, SVG Export Plug-In . SVG Version: 6.00 Build 0)  -->
<!DOCTYPE svg PUBLIC "-//W3C//DTD SVG 1.1//EN" "http://www.w3.org/Graphics/SVG/1.1/DTD/svg11.dtd">
<svg version="1.1" id="Logo" xmlns="http://www.w3.org/2000/svg" xmlns:xlink="http://www.w3.org/1999/xlink" x="0px" y="0px"
	 width="244.667px" height="47px" viewBox="0 0 244.667 47" enable-background="new 0 0 244.667 47" xml:space="preserve">
<g>
	<path fill="#48B9C7" d="M33.231,32.293v-1.959c-1.519,1.523-2.951,2.174-5.559,2.174c-2.56,0-4.428-0.65-5.773-1.998
		c-1.216-1.258-1.867-3.082-1.867-5.078c0-3.607,2.473-6.559,7.729-6.559h5.341v-1.127c0-2.477-1.218-3.566-4.211-3.566
		c-2.173,0-3.172,0.523-4.342,1.869l-3.606-3.516c2.215-2.432,4.389-3.122,8.165-3.122c6.337,0,9.637,2.687,9.637,7.985v14.896
		H33.231z M33.103,22.738h-4.477c-2.04,0-3.166,0.953-3.166,2.563c0,1.563,1.042,2.605,3.259,2.605c1.562,0,2.559-0.131,3.557-1.086
		c0.609-0.565,0.827-1.477,0.827-2.867V22.738z"/>
	<path fill="#48B9C7" d="M55.465,32.293H51.04L42.7,9.666h5.949l4.602,13.981l4.561-13.981h5.947L55.465,32.293z"/>
	<path fill="#48B9C7" d="M69.187,5.802V1.198h5.778v4.604H69.187z M69.274,32.293V9.666h5.646v22.627H69.274z"/>
	<path fill="#48B9C7" d="M95.676,32.293V18.615c0-3.086-1.952-4.131-3.734-4.131c-1.778,0-3.778,1.045-3.778,4.131v13.678h-5.645
		V9.666h5.515v2.084c1.477-1.563,3.562-2.339,5.646-2.339c2.258,0,4.081,0.732,5.34,1.993c1.828,1.822,2.299,3.951,2.299,6.425
		v14.464H95.676z"/>
	<path fill="#48B9C7" d="M124.397,12.516c-0.094-0.109-0.176-0.221-0.276-0.328c-1.388-1.478-3.69-2.776-7.036-2.776
		s-5.602,1.298-6.991,2.776c-2.041,2.125-2.561,4.688-2.561,8.77c0,4.125,0.52,6.687,2.561,8.814
		c1.389,1.477,3.646,2.781,6.991,2.781s5.648-1.305,7.036-2.781c0.101-0.109,0.183-0.219,0.276-0.329V12.516z M119.732,26.475
		c-0.65,0.647-1.52,0.994-2.647,0.994c-1.129,0-1.955-0.347-2.605-0.994c-1.172-1.174-1.303-3.172-1.303-5.518
		c0-2.342,0.131-4.297,1.303-5.472c0.651-0.651,1.477-1.001,2.605-1.001c1.128,0,1.997,0.35,2.647,1.001
		c1.172,1.175,1.304,3.13,1.304,5.472C121.037,23.303,120.905,25.301,119.732,26.475z"/>
	<path fill="#48B9C7" d="M9.093,18.525l-3.56-0.346c-1.998-0.176-2.346-1.129-2.346-1.955c0-1.131,0.954-2.17,3.213-2.17
		c1.951,0,3.947,0.346,5.253,1.516l3.472-3.516c-2.172-2.042-5.124-2.644-8.637-2.644c-2.493,0-4.839,0.74-6.473,2.164v9.972
		c1.106,0.782,2.564,1.238,4.346,1.408l3.557,0.348c1.778,0.174,2.387,0.955,2.387,2.085c0,1.693-2.039,2.343-3.992,2.343
		c-1.737,0-4.164-0.262-6.03-2.126l-0.268,0.264v5.736c1.938,0.794,4.009,0.948,6.21,0.948c5.339,0,9.597-2.387,9.597-7.385
		C15.822,21.35,13.562,18.96,9.093,18.525z"/>
</g>
<path fill="#7C8180" d="M162.278,5.607V1h5.773v4.607H162.278z M162.362,32.092V9.47h5.646v22.622H162.362z"/>
<path fill="#7C8180" d="M181.989,32.092c-4.644,0-6.604-3.256-6.604-6.467V1.176h5.645v24.102c0,1.348,0.563,2.043,1.996,2.043
	h2.173v4.771H181.989z"/>
<path fill="#7C8180" d="M197.404,32.092c-4.645,0-6.604-3.256-6.604-6.467V1.176h5.649v24.102c0,1.348,0.563,2.043,1.992,2.043
	h2.171v4.771H197.404z"/>
<path fill="#7C8180" d="M209.765,22.54c0,2.911,1.782,5.036,4.951,5.036c2.473,0,3.689-0.694,5.127-2.125l3.428,3.341
	c-2.3,2.306-4.518,3.563-8.602,3.563c-5.341,0-10.458-2.431-10.458-11.595c0-7.381,3.989-11.551,9.852-11.551
	c6.297,0,9.858,4.604,9.858,10.817v2.514H209.765z M217.843,16.242c-0.61-1.344-1.866-2.342-3.78-2.342
	c-1.909,0-3.167,0.998-3.773,2.342c-0.351,0.828-0.48,1.436-0.524,2.431h8.6C218.322,17.678,218.19,17.07,217.843,16.242z"/>
<path fill="#7C8180" d="M152.08,11.206c-1.264-1.26-3.303-1.997-5.561-1.997c-2.819,0-4.864,0.87-6.773,2.869
	c-1.431-1.957-3.475-2.869-5.991-2.869c-2.084,0-4.167,0.826-5.646,2.344V9.47h-2.727v22.622h2.856V18.415
	c0-3.083,2.001-4.125,3.779-4.125c1.78,0,3.734,1.042,3.734,4.125v13.677h5.644V18.286c0-2.954,2.04-3.996,3.779-3.996
	c1.777,0,3.735,1.042,3.735,4.125v13.677h5.644V17.635C154.554,15.157,153.901,13.031,152.08,11.206z"/>
<path fill="#7C8180" d="M243.234,9.352c-0.5-0.085-1.02-0.143-1.595-0.143c-2.434,0-4.604,1.13-5.688,2.432V9.47h-5.517v22.622
	h5.647V18.459c0-2.862,1.91-4.169,3.647-4.169c1.388,0,2.126,0.479,2.995,1.349l0.51-0.517V9.352z"/>
<g>
	<path fill="#48B9C7" d="M4.329,43.522c-0.436,0.435-1.074,0.668-1.822,0.668H0.035v-7.208h2.472c0.748,0,1.386,0.232,1.822,0.668
		c0.749,0.748,0.709,1.854,0.709,2.855S5.078,42.773,4.329,43.522z M3.792,38.196c-0.374-0.384-0.86-0.524-1.417-0.524h-1.57v5.832
		h1.57c0.557,0,1.043-0.145,1.417-0.527c0.496-0.518,0.476-1.59,0.476-2.471S4.288,38.713,3.792,38.196z"/>
	<path fill="#48B9C7" d="M22.681,44.19v-7.208h4.475v0.689H23.45v2.54h3.159v0.69H23.45v2.602h3.705v0.687H22.681z"/>
	<path fill="#48B9C7" d="M46.439,44.252c-1.083,0-1.792-0.273-2.471-0.951l0.527-0.527c0.597,0.598,1.154,0.791,1.964,0.791
		c1.053,0,1.701-0.496,1.701-1.338c0-0.374-0.112-0.699-0.344-0.901c-0.233-0.202-0.415-0.264-0.942-0.345l-0.84-0.13
		c-0.566-0.093-1.013-0.274-1.326-0.546c-0.365-0.326-0.546-0.77-0.546-1.348c0-1.227,0.88-2.035,2.308-2.035
		c0.921,0,1.529,0.232,2.146,0.789l-0.496,0.497c-0.446-0.404-0.921-0.618-1.681-0.618c-0.962,0-1.519,0.536-1.519,1.336
		c0,0.354,0.101,0.637,0.325,0.83c0.223,0.192,0.597,0.334,0.971,0.396l0.791,0.121c0.678,0.102,1.012,0.243,1.316,0.506
		c0.395,0.334,0.608,0.83,0.608,1.428C48.931,43.473,47.938,44.252,46.439,44.252z"/>
	<path fill="#48B9C7" d="M66.371,44.19v-7.208h0.77v7.208H66.371z"/>
	<path fill="#48B9C7" d="M89.229,43.422c-0.506,0.547-1.185,0.83-1.924,0.83c-0.709,0-1.357-0.264-1.843-0.748
		c-0.679-0.68-0.679-1.388-0.679-2.917s0-2.238,0.679-2.915c0.486-0.488,1.124-0.75,1.843-0.75c1.377,0,2.309,0.891,2.521,2.156
		h-0.77c-0.203-0.912-0.851-1.468-1.752-1.468c-0.476,0-0.932,0.193-1.245,0.516c-0.456,0.466-0.507,0.952-0.507,2.461
		c0,1.507,0.051,2.004,0.507,2.47c0.313,0.325,0.77,0.508,1.245,0.508c0.527,0,1.033-0.213,1.367-0.619
		c0.293-0.354,0.405-0.75,0.405-1.305v-0.549h-1.772v-0.678h2.542v1.145C89.847,42.389,89.674,42.945,89.229,43.422z"/>
	<path fill="#48B9C7" d="M112.066,44.19l-3.827-5.78v5.78h-0.77v-7.208h0.729l3.827,5.761v-5.761h0.77v7.208H112.066z"/>
	<path fill="#48B9C7" d="M136.614,44.252c-1.084,0-1.792-0.273-2.471-0.951l0.527-0.527c0.596,0.598,1.153,0.791,1.964,0.791
		c1.053,0,1.701-0.496,1.701-1.338c0-0.374-0.111-0.699-0.345-0.901c-0.232-0.202-0.414-0.264-0.941-0.345l-0.84-0.13
		c-0.568-0.093-1.014-0.274-1.327-0.546c-0.364-0.326-0.546-0.77-0.546-1.348c0-1.227,0.88-2.035,2.309-2.035
		c0.921,0,1.527,0.232,2.146,0.789l-0.496,0.497c-0.444-0.404-0.922-0.618-1.681-0.618c-0.961,0-1.519,0.536-1.519,1.336
		c0,0.354,0.101,0.637,0.324,0.83c0.222,0.192,0.597,0.334,0.972,0.396l0.79,0.121c0.678,0.102,1.012,0.243,1.315,0.506
		c0.396,0.334,0.607,0.83,0.607,1.428C139.104,43.473,138.113,44.252,136.614,44.252z"/>
	<path fill="#48B9C7" d="M157.902,37.672v6.519h-0.769v-6.519h-2.087v-0.689h4.942v0.689H157.902z"/>
	<path fill="#48B9C7" d="M178.815,44.252c-1.458,0-2.51-1.002-2.51-2.44v-4.829h0.77v4.77c0,1.092,0.688,1.813,1.74,1.813
		c1.055,0,1.753-0.721,1.753-1.813v-4.77h0.77v4.829C181.338,43.25,180.274,44.252,178.815,44.252z"/>
	<path fill="#48B9C7" d="M202.687,43.522c-0.436,0.435-1.072,0.668-1.822,0.668h-2.471v-7.208h2.471c0.75,0,1.387,0.232,1.822,0.668
		c0.748,0.748,0.709,1.854,0.709,2.855S203.435,42.773,202.687,43.522z M202.15,38.196c-0.375-0.384-0.86-0.524-1.418-0.524h-1.569
		v5.832h1.569c0.558,0,1.043-0.145,1.418-0.527c0.496-0.518,0.476-1.59,0.476-2.471S202.646,38.713,202.15,38.196z"/>
	<path fill="#48B9C7" d="M220.279,44.19v-7.208h0.769v7.208H220.279z"/>
	<path fill="#48B9C7" d="M242.296,43.504c-0.485,0.484-1.124,0.748-1.842,0.748c-0.719,0-1.357-0.264-1.843-0.748
		c-0.68-0.68-0.68-1.388-0.68-2.917s0-2.238,0.68-2.915c0.485-0.488,1.124-0.75,1.843-0.75c0.718,0,1.356,0.262,1.842,0.75
		c0.68,0.677,0.68,1.386,0.68,2.915S242.976,42.824,242.296,43.504z M241.698,38.126c-0.313-0.322-0.77-0.516-1.244-0.516
		c-0.476,0-0.932,0.193-1.246,0.516c-0.455,0.466-0.507,0.952-0.507,2.461c0,1.507,0.052,1.995,0.507,2.461
		c0.314,0.323,0.771,0.517,1.246,0.517c0.475,0,0.932-0.193,1.244-0.517c0.456-0.466,0.507-0.954,0.507-2.461
		C242.205,39.078,242.154,38.592,241.698,38.126z"/>
</g>
<g>
	<path fill="#FFFFFF" stroke="#FFFFFF" stroke-width="0.25" d="M0.078,58.463v-4.807h0.513v4.346h2.457v0.461H0.078z"/>
	<path fill="#FFFFFF" stroke="#FFFFFF" stroke-width="0.25" d="M7.508,58.463l-0.386-1.086H5.023l-0.385,1.086H4.092l1.769-4.807
		h0.432l1.762,4.807H7.508z M6.084,54.393L5.179,56.93h1.796L6.084,54.393z"/>
	<path fill="#FFFFFF" stroke="#FFFFFF" stroke-width="0.25" d="M12.655,58.463l-2.551-3.854v3.854H9.591v-4.807h0.485l2.552,3.841
		v-3.841h0.514v4.807H12.655z"/>
	<path fill="#FFFFFF" stroke="#FFFFFF" stroke-width="0.25" d="M18.154,58.016c-0.291,0.293-0.716,0.447-1.215,0.447h-1.647v-4.807
		h1.647c0.5,0,0.924,0.156,1.215,0.447c0.499,0.498,0.472,1.234,0.472,1.902S18.653,57.518,18.154,58.016z M17.796,54.468
		c-0.25-0.258-0.573-0.352-0.945-0.352h-1.046v3.886h1.046c0.372,0,0.695-0.094,0.945-0.348c0.33-0.346,0.317-1.063,0.317-1.648
		C18.113,55.418,18.126,54.811,17.796,54.468z"/>
	<path fill="#FFFFFF" stroke="#FFFFFF" stroke-width="0.25" d="M21.83,58.504c-0.722,0-1.194-0.182-1.647-0.635l0.352-0.352
		c0.398,0.396,0.77,0.527,1.31,0.527c0.702,0,1.134-0.332,1.134-0.893c0-0.248-0.074-0.465-0.229-0.6
		c-0.155-0.137-0.277-0.176-0.628-0.23l-0.561-0.088c-0.378-0.061-0.674-0.18-0.884-0.363c-0.243-0.217-0.365-0.514-0.365-0.898
		c0-0.816,0.587-1.355,1.54-1.355c0.614,0,1.019,0.153,1.431,0.525l-0.331,0.331c-0.297-0.27-0.615-0.413-1.121-0.413
		c-0.641,0-1.012,0.359-1.012,0.893c0,0.235,0.067,0.424,0.216,0.553c0.147,0.128,0.397,0.223,0.647,0.264l0.526,0.08
		c0.452,0.068,0.675,0.162,0.878,0.338c0.263,0.223,0.404,0.554,0.404,0.952C23.49,57.983,22.829,58.504,21.83,58.504z"/>
	<path fill="#FFFFFF" stroke="#FFFFFF" stroke-width="0.25" d="M26.823,58.504c-0.474,0-0.905-0.176-1.229-0.502
		c-0.452-0.449-0.452-0.924-0.452-1.941c0-1.02,0-1.492,0.452-1.944c0.324-0.325,0.756-0.499,1.229-0.499
		c0.863,0,1.505,0.525,1.667,1.431h-0.527c-0.128-0.587-0.54-0.974-1.14-0.974c-0.318,0-0.621,0.123-0.831,0.338
		c-0.304,0.311-0.337,0.642-0.337,1.648c0,1.004,0.034,1.336,0.337,1.646c0.21,0.215,0.513,0.338,0.831,0.338
		c0.601,0,1.025-0.385,1.154-0.975h0.513C28.335,57.977,27.68,58.504,26.823,58.504z"/>
	<path fill="#FFFFFF" stroke="#FFFFFF" stroke-width="0.25" d="M33.118,58.463l-0.385-1.086h-2.099l-0.385,1.086h-0.547l1.769-4.807
		h0.433l1.761,4.807H33.118z M31.693,54.393l-0.904,2.537h1.795L31.693,54.393z"/>
	<path fill="#FFFFFF" stroke="#FFFFFF" stroke-width="0.25" d="M36.99,56.484h-1.276v1.979h-0.513v-4.807h1.789
		c0.877,0,1.485,0.548,1.485,1.41C38.475,55.932,37.867,56.484,36.99,56.484z M36.942,54.116h-1.229v1.909h1.229
		c0.601,0,1.02-0.322,1.02-0.959C37.962,54.433,37.543,54.116,36.942,54.116z"/>
	<path fill="#FFFFFF" stroke="#FFFFFF" stroke-width="0.25" d="M40.213,58.463v-4.807h2.984v0.46h-2.471v1.693h2.105v0.46h-2.105
		v1.732h2.471v0.461H40.213z"/>
	<path fill="#FFFFFF" stroke="#FFFFFF" stroke-width="0.25" d="M51.911,58.463l-0.384-1.086h-2.1l-0.385,1.086h-0.547l1.769-4.807
		h0.433l1.761,4.807H51.911z M50.487,54.393l-0.904,2.537h1.795L50.487,54.393z"/>
	<path fill="#FFFFFF" stroke="#FFFFFF" stroke-width="0.25" d="M56.756,58.463l-1.093-2.135h-1.155v2.135h-0.514v-4.807h1.844
		c0.837,0,1.425,0.506,1.425,1.336c0,0.703-0.426,1.163-1.047,1.291l1.141,2.18H56.756z M55.79,54.116h-1.282v1.763h1.282
		c0.561,0,0.959-0.291,0.959-0.879S56.351,54.116,55.79,54.116z"/>
	<path fill="#FFFFFF" stroke="#FFFFFF" stroke-width="0.25" d="M60.682,58.504c-0.473,0-0.904-0.176-1.229-0.502
		c-0.452-0.449-0.452-0.924-0.452-1.941c0-1.02,0-1.492,0.452-1.944c0.324-0.325,0.756-0.499,1.229-0.499
		c0.864,0,1.506,0.525,1.667,1.431h-0.526c-0.128-0.587-0.54-0.974-1.141-0.974c-0.316,0-0.621,0.123-0.83,0.338
		c-0.304,0.311-0.338,0.642-0.338,1.648c0,1.004,0.034,1.336,0.338,1.646c0.209,0.215,0.514,0.338,0.83,0.338
		c0.601,0,1.026-0.385,1.155-0.975h0.512C62.194,57.977,61.539,58.504,60.682,58.504z"/>
	<path fill="#FFFFFF" stroke="#FFFFFF" stroke-width="0.25" d="M67.037,58.463V56.27h-2.28v2.193h-0.514v-4.807h0.514v2.153h2.28
		v-2.153h0.514v4.807H67.037z"/>
	<path fill="#FFFFFF" stroke="#FFFFFF" stroke-width="0.25" d="M69.701,58.463v-4.807h0.514v4.807H69.701z"/>
	<path fill="#FFFFFF" stroke="#FFFFFF" stroke-width="0.25" d="M73.776,54.116v4.347h-0.514v-4.347h-1.39v-0.46h3.293v0.46H73.776z"
		/>
	<path fill="#FFFFFF" stroke="#FFFFFF" stroke-width="0.25" d="M76.824,58.463v-4.807h2.983v0.46h-2.47v1.693h2.106v0.46h-2.106
		v1.732h2.47v0.461H76.824z"/>
	<path fill="#FFFFFF" stroke="#FFFFFF" stroke-width="0.25" d="M84.8,57.07h-0.513c-0.128,0.59-0.553,0.975-1.154,0.975
		c-0.317,0-0.621-0.123-0.83-0.338c-0.304-0.311-0.337-0.643-0.337-1.646c0-1.007,0.033-1.338,0.337-1.648
		c0.208-0.215,0.513-0.338,0.83-0.338c0.602,0,1.013,0.387,1.142,0.974H84.8c-0.162-0.905-0.803-1.431-1.667-1.431
		c-0.472,0-0.904,0.174-1.228,0.499c-0.453,0.452-0.453,0.925-0.453,1.944c0,1.018,0,1.492,0.453,1.941
		c0.324,0.326,0.756,0.502,1.228,0.502C83.991,58.504,84.646,57.977,84.8,57.07z"/>
	<path fill="#FFFFFF" stroke="#FFFFFF" stroke-width="0.25" d="M87.971,54.116v4.347h-0.514v-4.347h-1.391v-0.46h3.294v0.46H87.971z
		"/>
	<path fill="#FFFFFF" stroke="#FFFFFF" stroke-width="0.25" d="M94.306,56.876v-3.22h-0.513v3.18c0,0.73-0.466,1.209-1.168,1.209
		c-0.701,0-1.161-0.479-1.161-1.209v-3.18h-0.513v3.22c0,0.96,0.702,1.628,1.674,1.628C93.597,58.504,94.306,57.836,94.306,56.876z"
		/>
	<path fill="#FFFFFF" stroke="#FFFFFF" stroke-width="0.25" d="M99.15,58.463l-1.094-2.135h-1.154v2.135h-0.513v-4.807h1.843
		c0.837,0,1.424,0.506,1.424,1.336c0,0.703-0.425,1.163-1.046,1.291l1.14,2.18H99.15z M98.185,54.116h-1.283v1.763h1.283
		c0.56,0,0.958-0.291,0.958-0.879S98.745,54.116,98.185,54.116z"/>
	<path fill="#FFFFFF" stroke="#FFFFFF" stroke-width="0.25" d="M101.578,58.463v-4.807h2.983v0.46h-2.47v1.693h2.106v0.46h-2.106
		v1.732h2.47v0.461H101.578z"/>
	<path fill="#FFFFFF" stroke="#FFFFFF" stroke-width="0.25" d="M111.123,58.963v-5.805h-0.486v5.805H111.123z"/>
	<path fill="#FFFFFF" stroke="#FFFFFF" stroke-width="0.25" d="M119.129,58.504c-0.973,0-1.675-0.668-1.675-1.628v-3.22h0.513v3.18
		c0,0.73,0.459,1.209,1.162,1.209c0.701,0,1.167-0.479,1.167-1.209v-3.18h0.513v3.22C120.809,57.836,120.1,58.504,119.129,58.504z"
		/>
	<path fill="#FFFFFF" stroke="#FFFFFF" stroke-width="0.25" d="M126.254,58.463l-1.142-2.18c0.622-0.128,1.048-0.588,1.048-1.291
		c0-0.83-0.589-1.336-1.426-1.336h-1.843v4.807h0.514v-2.135h1.155l1.093,2.135H126.254z M125.646,55
		c0,0.588-0.399,0.879-0.959,0.879h-1.282v-1.763h1.282C125.247,54.116,125.646,54.412,125.646,55z"/>
	<path fill="#FFFFFF" stroke="#FFFFFF" stroke-width="0.25" d="M129.949,58.463h-1.869v-4.807h1.81c0.837,0,1.417,0.479,1.417,1.283
		c0,0.506-0.304,0.904-0.708,1.053c0.458,0.169,0.783,0.567,0.783,1.141C131.382,58.002,130.802,58.463,129.949,58.463z
		 M129.849,54.116h-1.256v1.667h1.256c0.534,0,0.944-0.264,0.944-0.836C130.793,54.373,130.383,54.116,129.849,54.116z
		 M129.902,56.243h-1.31v1.759h1.31c0.595,0,0.966-0.342,0.966-0.883S130.497,56.243,129.902,56.243z"/>
	<path fill="#FFFFFF" stroke="#FFFFFF" stroke-width="0.25" d="M136.15,58.463l-0.384-1.086h-2.1l-0.385,1.086h-0.547l1.769-4.807
		h0.433l1.762,4.807H136.15z M134.727,54.393l-0.904,2.537h1.796L134.727,54.393z"/>
	<path fill="#FFFFFF" stroke="#FFFFFF" stroke-width="0.25" d="M141.299,58.463l-2.552-3.854v3.854h-0.513v-4.807h0.485l2.552,3.841
		v-3.841h0.513v4.807H141.299z"/>
	<path fill="#FFFFFF" stroke="#FFFFFF" stroke-width="0.25" d="M150.884,58.016c-0.289,0.293-0.715,0.447-1.215,0.447h-1.646v-4.807
		h1.646c0.5,0,0.926,0.156,1.215,0.447c0.501,0.498,0.473,1.234,0.473,1.902S151.385,57.518,150.884,58.016z M150.526,54.468
		c-0.249-0.258-0.574-0.352-0.945-0.352h-1.046v3.886h1.046c0.371,0,0.696-0.094,0.945-0.348c0.331-0.346,0.317-1.063,0.317-1.648
		C150.844,55.418,150.857,54.811,150.526,54.468z"/>
	<path fill="#FFFFFF" stroke="#FFFFFF" stroke-width="0.25" d="M156.308,58.463v-0.461h-2.47V56.27h2.106v-0.46h-2.106v-1.693h2.47
		v-0.46h-2.982v4.807H156.308z"/>
	<path fill="#FFFFFF" stroke="#FFFFFF" stroke-width="0.25" d="M161.031,57.14c0-0.398-0.142-0.729-0.405-0.952
		c-0.202-0.176-0.426-0.27-0.878-0.338l-0.526-0.08c-0.249-0.041-0.498-0.136-0.647-0.264c-0.149-0.129-0.216-0.317-0.216-0.553
		c0-0.533,0.371-0.893,1.012-0.893c0.506,0,0.824,0.144,1.121,0.413l0.33-0.331c-0.41-0.372-0.816-0.525-1.43-0.525
		c-0.952,0-1.54,0.539-1.54,1.355c0,0.385,0.122,0.682,0.365,0.898c0.208,0.184,0.507,0.303,0.885,0.363l0.56,0.088
		c0.351,0.055,0.473,0.094,0.627,0.23c0.155,0.135,0.229,0.352,0.229,0.6c0,0.561-0.431,0.893-1.134,0.893
		c-0.54,0-0.911-0.131-1.31-0.527l-0.352,0.352c0.453,0.453,0.926,0.635,1.647,0.635C160.37,58.504,161.031,57.983,161.031,57.14z"
		/>
	<path fill="#FFFFFF" stroke="#FFFFFF" stroke-width="0.25" d="M162.864,58.463v-4.807h0.514v4.807H162.864z"/>
	<path fill="#FFFFFF" stroke="#FFFFFF" stroke-width="0.25" d="M168.31,57.949c-0.337,0.365-0.79,0.555-1.283,0.555
		c-0.472,0-0.904-0.176-1.228-0.502c-0.453-0.449-0.453-0.924-0.453-1.941c0-1.02,0-1.492,0.453-1.944
		c0.323-0.325,0.748-0.499,1.228-0.499c0.918,0,1.539,0.593,1.682,1.437h-0.514c-0.136-0.608-0.566-0.979-1.168-0.979
		c-0.316,0-0.621,0.13-0.829,0.346c-0.305,0.309-0.339,0.634-0.339,1.641c0,1.004,0.034,1.336,0.339,1.646
		c0.208,0.215,0.513,0.338,0.829,0.338c0.352,0,0.689-0.144,0.912-0.413c0.195-0.235,0.27-0.499,0.27-0.87v-0.365h-1.182v-0.452
		h1.695v0.765C168.722,57.26,168.606,57.632,168.31,57.949z"/>
	<path fill="#FFFFFF" stroke="#FFFFFF" stroke-width="0.25" d="M173.74,58.463l-2.551-3.854v3.854h-0.513v-4.807h0.484l2.553,3.841
		v-3.841h0.514v4.807H173.74z"/>
	<path fill="#FFFFFF" stroke="#FFFFFF" stroke-width="0.25" d="M181.112,58.963v-5.805h-0.486v5.805H181.112z"/>
	<path fill="#FFFFFF" stroke="#FFFFFF" stroke-width="0.25" d="M190.313,58.463l-0.385-1.086h-2.099l-0.386,1.086h-0.546
		l1.768-4.807h0.434l1.761,4.807H190.313z M188.888,54.393l-0.904,2.537h1.796L188.888,54.393z"/>
	<path fill="#FFFFFF" stroke="#FFFFFF" stroke-width="0.25" d="M195.157,58.463l-1.095-2.135h-1.153v2.135h-0.514v-4.807h1.843
		c0.837,0,1.424,0.506,1.424,1.336c0,0.703-0.425,1.163-1.046,1.291l1.141,2.18H195.157z M194.191,54.116h-1.282v1.763h1.282
		c0.56,0,0.958-0.291,0.958-0.879S194.751,54.116,194.191,54.116z"/>
	<path fill="#FFFFFF" stroke="#FFFFFF" stroke-width="0.25" d="M199.083,58.504c-0.474,0-0.904-0.176-1.229-0.502
		c-0.452-0.449-0.452-0.924-0.452-1.941c0-1.02,0-1.492,0.452-1.944c0.325-0.325,0.756-0.499,1.229-0.499
		c0.864,0,1.504,0.525,1.667,1.431h-0.527c-0.128-0.587-0.539-0.974-1.14-0.974c-0.318,0-0.621,0.123-0.831,0.338
		c-0.303,0.311-0.337,0.642-0.337,1.648c0,1.004,0.034,1.336,0.337,1.646c0.21,0.215,0.513,0.338,0.831,0.338
		c0.601,0,1.025-0.385,1.154-0.975h0.513C200.595,57.977,199.939,58.504,199.083,58.504z"/>
	<path fill="#FFFFFF" stroke="#FFFFFF" stroke-width="0.25" d="M205.438,58.463V56.27h-2.281v2.193h-0.514v-4.807h0.514v2.153h2.281
		v-2.153h0.513v4.807H205.438z"/>
	<path fill="#FFFFFF" stroke="#FFFFFF" stroke-width="0.25" d="M208.615,58.463v-4.807h-0.514v4.807H208.615z"/>
	<path fill="#FFFFFF" stroke="#FFFFFF" stroke-width="0.25" d="M213.567,54.116v-0.46h-3.295v0.46h1.392v4.347h0.513v-4.347H213.567
		z"/>
	<path fill="#FFFFFF" stroke="#FFFFFF" stroke-width="0.25" d="M215.226,58.463v-4.807h2.982v0.46h-2.469v1.693h2.105v0.46h-2.105
		v1.732h2.469v0.461H215.226z"/>
	<path fill="#FFFFFF" stroke="#FFFFFF" stroke-width="0.25" d="M221.534,58.504c-0.473,0-0.904-0.176-1.229-0.502
		c-0.453-0.449-0.453-0.924-0.453-1.941c0-1.02,0-1.492,0.453-1.944c0.324-0.325,0.756-0.499,1.229-0.499
		c0.863,0,1.505,0.525,1.667,1.431h-0.527c-0.127-0.587-0.539-0.974-1.14-0.974c-0.317,0-0.621,0.123-0.83,0.338
		c-0.304,0.311-0.338,0.642-0.338,1.648c0,1.004,0.034,1.336,0.338,1.646c0.209,0.215,0.513,0.338,0.83,0.338
		c0.601,0,1.025-0.385,1.154-0.975h0.513C223.046,57.977,222.392,58.504,221.534,58.504z"/>
	<path fill="#FFFFFF" stroke="#FFFFFF" stroke-width="0.25" d="M227.763,54.116v-0.46h-3.296v0.46h1.392v4.347h0.513v-4.347H227.763
		z"/>
	<path fill="#FFFFFF" stroke="#FFFFFF" stroke-width="0.25" d="M231.026,58.504c-0.973,0-1.674-0.668-1.674-1.628v-3.22h0.513v3.18
		c0,0.73,0.459,1.209,1.161,1.209s1.168-0.479,1.168-1.209v-3.18h0.513v3.22C232.707,57.836,231.999,58.504,231.026,58.504z"/>
	<path fill="#FFFFFF" stroke="#FFFFFF" stroke-width="0.25" d="M237.551,58.463l-1.093-2.135h-1.154v2.135h-0.514v-4.807h1.843
		c0.837,0,1.425,0.506,1.425,1.336c0,0.703-0.426,1.163-1.047,1.291l1.141,2.18H237.551z M236.586,54.116h-1.282v1.763h1.282
		c0.56,0,0.958-0.291,0.958-0.879S237.146,54.116,236.586,54.116z"/>
	<path fill="#FFFFFF" stroke="#FFFFFF" stroke-width="0.25" d="M239.979,58.463v-4.807h2.983v0.46h-2.471v1.693h2.106v0.46h-2.106
		v1.732h2.471v0.461H239.979z"/>
</g>
</svg>
